<svg height="480pt" viewBox="0 0 480.00033 480" width="480pt" xmlns="http://www.w3.org/2000/svg"><path d="m240 7.957031c-123.628906-.234375-225.722656 96.519531-232.125 219.984375-6.402344 123.460938 85.132812 230.257813 208.125 242.8125v-142.796875h24c-48.601562 0-88-39.402343-88-88 0-48.601562 39.398438-88 88-88s88 39.398438 88 88c0 48.597657-39.398438 88-88 88h214.640625c29.355469-71.550781 21.121094-153.027343-21.960937-217.257812-43.082032-64.230469-115.339844-102.761719-192.679688-102.742188zm0 48c101.574219.113281 183.886719 82.425781 184 184-.113281-101.574219-82.425781-183.886719-184-184zm0 0" fill="#c6c5ca"/><path d="m216 327.957031v142.796875c7.976562.804688 15.984375 1.203125 24 1.203125h232v-144zm192 104v8h40v-80h-40 40v80h-40zm-80-32v-40h32c8.835938 0 16 7.160157 16 16v8c0 8.835938-7.164062 16-16 16zm-24-40-32 64-32-64 32 64zm0 0" fill="#ffcd00"/><path d="m376 383.957031v-8c0-8.839843-7.164062-16-16-16h-32v40h32c8.835938 0 16-7.164062 16-16zm0 0" fill="#ffcd00"/><path d="m328 239.957031c0-48.601562-39.398438-88-88-88s-88 39.398438-88 88c0 48.597657 39.398438 88 88 88s88-39.402343 88-88zm-88 40c-22.089844 0-40-17.910156-40-40 0-22.09375 17.910156-40 40-40s40 17.90625 40 40c0 22.089844-17.910156 40-40 40zm0 0" fill="#57565c"/><g fill="#231f20"><path d="m472 319.957031h-5.71875c9.125-25.683593 13.765625-52.746093 13.71875-80-.023438-129.320312-102.507812-235.371093-231.75-239.816406s-238.769531 94.3125-247.679688 223.324219c-8.910156 129.011718 86.003907 241.886718 214.628907 255.25 8.242187.828125 16.519531 1.242187 24.800781 1.242187h232c4.417969 0 8-3.582031 8-8v-144c0-4.417969-3.582031-8-8-8zm-456-80c0-123.714843 100.289062-224 224-224s224 100.285157 224 224c.054688 27.347657-4.957031 54.472657-14.785156 80h-156.261719c37.171875-24.558593 52.5625-71.464843 37.167969-113.273437-15.394532-41.804688-57.53125-67.527344-101.753906-62.113282-44.21875 5.414063-78.90625 40.539063-83.761719 84.824219-4.855469 44.289063 21.394531 86.09375 63.394531 100.960938v131.367187c-110.398438-15.609375-192.355469-110.273437-192-221.765625zm144 0c0-44.183593 35.816406-80 80-80s80 35.816407 80 80c0 44.179688-35.816406 80-80 80-44.164062-.050781-79.953125-35.839843-80-80zm304 224h-224c-5.34375 0-10.703125-.1875-16-.546875v-127.453125h240zm0 0"/><path d="m305.839844 352.171875c-3.613282-.855469-7.339844.886719-9 4.207031l-24.839844 49.6875-24.800781-49.6875c-1.632813-3.371094-5.386719-5.160156-9.03125-4.300781-3.648438.859375-6.210938 4.132813-6.167969 7.878906v80c0 4.417969 3.582031 8 8 8s8-3.582031 8-8v-46.113281l16.800781 33.6875c1.503907 2.523438 4.222657 4.066406 7.160157 4.066406 2.933593 0 5.65625-1.542968 7.160156-4.066406l16.878906-33.6875v46.113281c0 4.417969 3.582031 8 8 8s8-3.582031 8-8v-80c0-3.710937-2.550781-6.933593-6.160156-7.785156zm0 0"/><path d="m448 351.957031h-40c-4.417969 0-8 3.582031-8 8v8c0 4.417969 3.582031 8 8 8s8-3.582031 8-8h24v24h-24c-4.417969 0-8 3.582031-8 8s3.582031 8 8 8h24v24h-24c0-4.417969-3.582031-8-8-8s-8 3.582031-8 8v8c0 4.417969 3.582031 8 8 8h40c4.417969 0 8-3.582031 8-8v-80c0-4.417969-3.582031-8-8-8zm0 0"/><path d="m360 351.957031h-32c-4.417969 0-8 3.582031-8 8v80c0 4.417969 3.582031 8 8 8s8-3.582031 8-8v-32h24c13.253906 0 24-10.746093 24-24v-8c0-13.257812-10.746094-24-24-24zm8 32c0 4.417969-3.582031 8-8 8h-24v-24h24c4.417969 0 8 3.582031 8 8zm0 0"/><path d="m240 63.957031c97.15625.109375 175.890625 78.84375 176 176 0 4.417969 3.582031 8 8 8s8-3.582031 8-8c-.125-105.988281-86.011719-191.878906-192-192-4.417969 0-8 3.582031-8 8s3.582031 8 8 8zm0 0"/><path d="m240 191.957031c-26.507812 0-48 21.488281-48 48 0 26.507813 21.492188 48 48 48s48-21.492187 48-48c-.027344-26.5-21.5-47.976562-48-48zm0 80c-17.671875 0-32-14.328125-32-32 0-17.675781 14.328125-32 32-32s32 14.324219 32 32c0 17.671875-14.328125 32-32 32zm0 0"/></g></svg>